<svg width="200" height="100" xmlns="http://www.w3.org/2000/svg">

 <g>
  <title>Layer 1</title>
  <path id="svg_11" d="m127.03746,13.09277l-54.15385,0c-2.71754,0 -4.92308,2.38277 -4.92308,5.31868l0,58.50549c0,2.93591 2.20554,5.31868 4.92308,5.31868l54.15385,0c2.71754,0 4.92308,-2.38277 4.92308,-5.31868l0,-58.50549c0,-2.93591 -2.20554,-5.31868 -4.92308,-5.31868zm-39.46092,62.90936l-9.84615,0l0,-37.23077l9.84615,0l0,37.23077zm-4.92308,-41.21978c-3.40431,0 -6.15385,-2.9758 -6.15385,-6.64835s2.74954,-6.64835 6.15385,-6.64835s6.15385,2.9758 6.15385,6.64835s-2.74954,6.64835 -6.15385,6.64835zm39.38461,41.21978l-9.84615,0l0,-22.60439c0,-1.06374 -0.992,-2.8056 -1.69108,-3.22578c-0.92308,-0.56112 -3.104,-0.60899 -4.09846,-0.09042l-4.05662,2.10886l0,23.81174l-9.84615,0l0,-37.23077l9.84615,0l0,1.63284c3.89662,-1.9227 9.30462,-1.73389 12.97231,0.48932c3.89415,2.35618 6.72,7.61635 6.72,12.50422l0,22.60439z" stroke="#000" fill="#0000ff"/>
  <rect id="svg_12" height="10.85714" width="117.14286" y="79.42857" x="41.42857" stroke="#000" fill="#0000ff"/>
 </g>
</svg>